<?xml version="1.0" ?><!DOCTYPE svg  PUBLIC '-//W3C//DTD SVG 1.1//EN'  'http://www.w3.org/Graphics/SVG/1.1/DTD/svg11.dtd'><svg height="80px" id="Layer_1" style="enable-background:new 0 0 80 80;" version="1.1" viewBox="0 0 80 80" width="80px" xml:space="preserve" xmlns="http://www.w3.org/2000/svg" xmlns:xlink="http://www.w3.org/1999/xlink"><style type="text/css">
	.st0{fill:#1C2B36;}
</style><path class="st0" d="M63.1,73.1c0,0-1.8,1.6-5,2c-2.9,0.3-5.3-0.2-7.1-0.7h0c-2.8-7-7.9-19.5-8.7-22.4c0.1,0.7,2.8,19.6,5.2,26.5  c-0.5,0.6-1.3,0.8-2.4,0.7c-4.4-0.7-8.1-4.1-10.1-2.1c-1.7,1.7-6.4,1.3-7.5,0.6c1.9-8.4,3.7-20.6,3.8-21.2  c-0.7,2.6-4.8,12.8-7.7,19.9c-3.5,0.3-6.9-1.4-6.8-2.2c11.1-21.3,12.9-33,12.5-40c-0.4-6,2.3-12.8,2.7-15.6c0.3-2.8-1.5-6.8-1.5-6.8  c-1.1-5.4,8.7-4.9,12.2-7.6c0.5-1.5,1.5-3.3,1.5-3.3l0.9,0.3c-1.6,4.5,1.1,6.2,0.4,9.2c-0.5,2.5-2.3,3.8-1.8,8.5  c0.4,3.8,3.3,7.5,3.4,13.2c0.1,4-1.6,7.4,0.5,13.9C50.4,54.7,56.4,66.9,63.1,73.1z"/></svg>